<?xml version="1.0" encoding="UTF-8"?>
<svg xmlns="http://www.w3.org/2000/svg" xmlns:xlink="http://www.w3.org/1999/xlink" version="1.1" id="Layer_1" x="0px" y="0px" viewBox="0 0 200 200" style="enable-background:new 0 0 200 200;" xml:space="preserve"> <style type="text/css"> .st0{fill:#1769AA;} </style> <path class="st0" d="M125.4,50.8V13.4c0-6.8-5.6-12.4-12.4-12.4H88.1c-6.8,0-12.4,5.6-12.4,12.4v37.3c0,6.8,5.6,12.4,12.4,12.4h24.9 C119.8,63.2,125.4,57.6,125.4,50.8z M100.5,13.4c6.8,0,12.4,5.6,12.4,12.4s-5.6,12.4-12.4,12.4s-12.4-5.6-12.4-12.4 S93.7,13.4,100.5,13.4z M200,175.1V75.6c0-13.7-11.2-24.9-24.9-24.9h-37.3v4.1c0,11.4-9.3,20.8-20.8,20.8H84 c-11.4,0-20.8-9.3-20.8-20.8v-4.1H25.9C12.2,50.8,1,61.9,1,75.6v99.5C1,188.8,12.2,200,25.9,200h149.2 C188.8,200,200,188.8,200,175.1z M187.6,100.5v74.6H13.4v-74.6H187.6z M88.1,125.4c0-6.8-2.7-12.4-6.2-12.4s-6.2,5.6-6.2,12.4 c0,6.8,2.7,12.4,6.2,12.4S88.1,132.2,88.1,125.4z M125.4,125.4c0-6.8-2.7-12.4-6.2-12.4s-6.2,5.6-6.2,12.4c0,6.8,2.7,12.4,6.2,12.4 S125.4,132.2,125.4,125.4z M51.2,140.4c11.4,6,29.1,9.8,49.3,9.8s37.8-3.9,49.3-9.8c-2.6,12.4-23.5,22.3-49.3,22.3 S53.9,152.9,51.2,140.4z"/> <script xmlns="" id="bw-fido2-page-script"/></svg>